
<svg xmlns="http://www.w3.org/2000/svg" version="1.1" xmlns:xlink="http://www.w3.org/1999/xlink" preserveAspectRatio="none" x="0px" y="0px" width="150px" height="149px" viewBox="0 0 150 149">
<defs>
<g id="Layer1_0_FILL">
<path fill="#988E6D" stroke="none" d="
M 146.2 16.5
L 131.15 31.5 117.35 17.65 131.4 3.7 108.55 3.7 108.55 23.65 29.15 103
Q 27.35 102.75 25.4 102.75 23.55 102.75 21.8 102.95 15.1 104 10.05 109.05 3.7 115.4 3.7 124.4 3.7 133.35 10.05 139.75 15.1 144.75 21.8 145.8 23.75 146.1 25.85 146.1 32.6 145.95 37.8 142.25 39.3 141.15 40.75 139.75 42.15 138.35 43.2 136.85 46.95 131.55 47.05 124.85
L 47.05 123.95
Q 47.05 122.35 46.85 120.85
L 126.25 41.3 146.2 41.3 146.2 16.5
M 43.2 124.4
L 43.2 124.85
Q 43.1 131.95 38 137.05 32.95 142.05 25.9 142.25
L 25.4 142.25
Q 18 142.25 12.75 137.05 7.55 131.8 7.55 124.4 7.55 117.05 12.75 111.8 18 106.6 25.4 106.6 25.5 106.6 25.6 106.6 32.25 106.7 37.1 110.95 37.55 111.4 38 111.8 38.4 112.25 38.8 112.65 43.2 117.65 43.2 124.4 Z"/>
</g>

<g id="Layer0_0_FILL">
<path fill="#564C28" stroke="none" d="
M 115.1 63.25
Q 116.45 68.4 116.45 74 116.45 90.75 104.6 102.6 92.75 114.45 76 114.45 70.35 114.45 65.25 113.1
L 52.55 125.8
Q 56.5 127.65 60.8 128.8 61.25 127 62.75 125.6 64.9 123.4 68 123.4 71.15 123.4 73.35 125.6 75.5 127.7 75.5 130.7 75.75 130.7 76 130.7 80.6 130.7 84.95 130.1 84.9 129.55 84.9 128.9 84.9 125.8 87.05 123.65 89.25 121.4 92.4 121.4 95.45 121.4 97.7 123.65 98.75 124.7 99.25 125.95 104.3 123.7 108.85 120.35 107.75 118.55 107.75 116.3 107.75 113.2 109.9 111 112.1 108.8 115.25 108.8 117.75 108.8 119.7 110.25 123 106.3 125.5 102 124.5 101.45 123.6 100.6 121.4 98.35 121.4 95.3 121.4 92.15 123.6 89.95 125.8 87.75 128.9 87.75 130.05 87.75 131.1 88.05 132.4 82.7 132.65 76.9 129.6 76.85 127.4 74.7 125.2 72.5 125.2 69.4 125.2 66.25 127.4 64.05 129.15 62.3 131.55 61.95 130.3 55.95 127.8 50.55
L 115.1 63.25
M 89.25 22.4
Q 87.05 24.65 84 24.65 80.85 24.65 78.65 22.4 76.5 20.3 76.45 17.3 76.25 17.3 76 17.3 71.4 17.3 67 17.95 67.1 18.45 67.1 19.1 67.1 22.2 64.9 24.4 62.75 26.6 59.6 26.6 56.5 26.6 54.3 24.4 53.25 23.3 52.7 22.1 47.7 24.3 43.15 27.7 44.25 29.45 44.25 31.7 44.25 34.8 42.1 37 39.9 39.25 36.75 39.25 34.25 39.25 32.3 37.75 28.95 41.7 26.45 46 27.5 46.55 28.35 47.45 30.6 49.65 30.6 52.75 30.6 55.85 28.35 58.05 26.15 60.25 23.1 60.25 21.95 60.25 20.9 59.95 19.55 65.35 19.35 71.15 22.4 71.15 24.6 73.35 26.8 75.5 26.8 78.65 26.8 81.75 24.6 83.95 22.85 85.75 20.4 86.05 21.65 92.05 24.2 97.5
L 36.9 84.75
Q 35.55 79.65 35.55 74 35.55 57.25 47.4 45.4 59.25 33.55 76 33.55 81.65 33.55 86.75 34.9
L 99.45 22.2
Q 95.45 20.3 91.2 19.25 90.7 21.05 89.25 22.4 Z"/>
</g>
</defs>

<g transform="matrix( 1, 0, 0, 1, 0,0) ">
<use xlink:href="#Layer1_0_FILL"/>
</g>

<g transform="matrix( 1, 0, 0, 1, 0,0) ">
<use xlink:href="#Layer0_0_FILL"/>
</g>
</svg>
